# xmcd
#
# Track frame offsets:
#	150
#	1433
#	26336
#	41984
#	60258
#	67357
#	103122
#	113059
#	137224
#	142539
#	161678
#	168406
#	180653
#	198181
#	201378
#	220342
#	235747
#
# Disc length: 3155 seconds
# Revision: 0
# Processed by: cddbd v1.5.2PL0 Copyright (c) Steve Scherf et al.
# Submitted via: dBpowerAMP V12.0
#
DISCID=f10c5111
DTITLE=Hale Dwoskin - The Inner Circle Retreat 01 CD 16
DYEAR=2006
DGENRE=Speech
TTITLE0=Intro Music
TTITLE1=It Is Not about You
TTITLE2=Let the River Carry You
TTITLE3=Participant Gain
TTITLE4=Money Issues
TTITLE5=Release on Money Issues
TTITLE6=Partnership Release Demonstration
TTITLE7=Disapproving of Yourself
TTITLE8=Sharing the Method with Children
TTITLE9=Holistic Release on Being Judgemental
TTITLE10=More Holistic Releases on Being Judgemental
TTITLE11=Goals vs Attachments and Aversions
TTITLE12=Creating the Perfect Relationship
TTITLE13=Difficult People
TTITLE14=Release on Difficult People
TTITLE15=Wanting to Control Them Back
TTITLE16=Concluding Music
EXTD=
EXTT0=
EXTT1=
EXTT2=
EXTT3=
EXTT4=
EXTT5=
EXTT6=
EXTT7=
EXTT8=
EXTT9=
EXTT10=
EXTT11=
EXTT12=
EXTT13=
EXTT14=
EXTT15=
EXTT16=
PLAYORDER=
